<svg xmlns="http://www.w3.org/2000/svg" version="1.1" x="0px" y="0px" viewBox="0 0 100 125" fill="white"
     enable-background="new 0 0 100 100" xml:space="preserve"><path d="M16.089,78.369c-3.393,0-7.713-1.394-7.979-1.526c-0.464-0.232-2.924-2.74-3.061-3.744  c-0.109-0.801-0.003-1.509,0.001-1.538l0.013-0.059l2.266-8.31c-0.015-0.481-0.084-2.882-0.021-3.578  c0.017-0.184,0.093-0.593,0.249-1.428c0.435-2.322,1.34-7.154,1.14-9.35c-0.11-1.218-0.43-3.112-0.768-5.118  c-0.466-2.763-0.994-5.895-1.094-7.986c-0.059-1.232-0.198-2.504-0.32-3.626c-0.292-2.686-0.418-4.116,0.157-4.729  c0.853-0.909,1.814-0.809,2.236-0.619c0.023,0.004,0.051,0.007,0.08,0.011c0.777,0.103,1.7,0.476,1.939,2.468  c0.303,2.533,1.182,8.203,1.834,9.834c0.592,1.48,1.899,3.836,2.419,4.552c0.383-0.36,0.483-1.526,0.511-2.067  c0.025-0.493,0.052-1.166,0.083-1.928c0.084-2.12,0.201-5.022,0.387-6.586c0.042-0.343,0.09-0.875,0.149-1.523  c0.684-7.485,1.332-10.097,2.565-10.352c1.858-0.382,3.177,0.588,3.232,0.63c0.662,0.497,0.896,4.578,0.836,8.402  c-0.016,1.033-0.035,2.06-0.053,3.05c-0.067,3.7-0.137,7.525,0.007,8.135l0.008,0.014c0.029,0.045,0.064,0.1,0.099,0.152  c0.891-1.037,5.623-7.033,6.474-8.394c0.512-0.82,1.377-2.417,2.073-3.7c0.524-0.967,0.938-1.732,1.131-2.041  c0.569-0.911,2.128-1.547,2.872-1.173c0.075,0.037,0.182,0.066,0.303,0.103c0.577,0.176,1.778,0.543,1.728,1.863  c-0.048,1.263-1.572,6.323-1.869,7.003c-0.177,0.404-1.097,2.07-2.377,4.379c-0.657,1.185-1.335,2.409-1.407,2.566  c-0.102,0.229-0.279,0.408-0.435,0.566c-0.013,0.013-0.026,0.026-0.041,0.041l0,0c0.192,0,0.551-0.036,1.197-0.18l0.149-0.033  c0.037-0.008,3.805-0.768,4.783-0.768c1.112,0,2.928,1.394,3.301,1.836c0.51,0.605,1.806,6.655,1.806,8.911  c0,0.062-0.121,5.213-0.604,7.268l0.542,0.523l0.04,0.134c0.132,0.441,0.262,2.279,0.001,3.174c-0.178,0.611-0.653,1.28-1.073,1.871  c-0.192,0.271-0.374,0.527-0.475,0.708c-0.398,0.716-1.359,0.832-2.208,0.934c-0.178,0.021-0.351,0.042-0.508,0.068  c-0.791,0.132-5.832,0.608-6.63,0.608c-0.349,0.036-1.659,1.004-2.289,1.469c-0.56,0.413-1.002,0.739-1.278,0.878  c-0.709,0.354-2.929,0.389-3.666,0.39l-0.801,0.134c-0.353,1.609-1.195,5.36-1.514,5.934c-0.349,0.629-0.774,0.727-2.036,1.016  c-0.507,0.116-1.184,0.271-2.101,0.511C17.504,78.305,16.818,78.369,16.089,78.369z M6.103,71.749  c-0.015,0.121-0.072,0.641,0.005,1.206c0.099,0.496,2.036,2.66,2.492,2.938c0.572,0.26,6.396,1.961,9.228,1.223  c0.93-0.242,1.616-0.399,2.131-0.518c1.178-0.271,1.237-0.305,1.341-0.493c0.191-0.364,0.903-3.334,1.48-5.995l0.077-0.354  l1.647-0.267c1.288,0,2.89-0.106,3.232-0.277c0.193-0.097,0.665-0.445,1.121-0.782c1.373-1.014,2.317-1.678,2.923-1.678  c0.676,0,5.622-0.455,6.455-0.594c0.172-0.028,0.36-0.052,0.556-0.075c0.474-0.057,1.268-0.152,1.401-0.392  c0.129-0.233,0.328-0.512,0.537-0.808c0.353-0.496,0.791-1.114,0.919-1.553c0.181-0.621,0.095-1.996,0.024-2.449l-0.163-0.158  c-0.804,0.309-2.857,0.505-3.317,0.197c-0.164-0.108-1.631-1.318-1.737-2.218c-0.051-0.431,0.004-1.39,0.081-2.599  c0.021-0.319,0.038-0.6,0.047-0.792c0.033-0.714-0.331-3.887-0.492-4.298c-0.18-0.39-0.423-0.766-0.632-0.975  c0,0.004-0.071,0.024-0.164,0.09c-0.231,0.166-0.668,0.623-0.725,0.786c-0.026,0.133-0.112,0.371-0.274,0.812  c-0.167,0.455-0.373,1.402-0.373,1.64C33.953,53.776,34,54.088,34,54.239V54h-1v0.082l-0.148-0.083l0,0c0,0-0.023-0.221-0.047-0.561  c-0.028-0.393,0.167-1.077,0.533-2.078c0.096-0.261,0.193-0.586,0.211-0.669c0.13-0.648,1.127-1.423,1.137-1.431  c0.544-0.389,1.13-0.38,1.534,0.024c0.301,0.301,0.607,0.771,0.847,1.289c0.274,0.594,0.617,4.106,0.586,4.787  c-0.009,0.197-0.029,0.485-0.049,0.813c-0.052,0.811-0.13,2.037-0.087,2.405c0.045,0.296,0.868,1.16,1.225,1.424  c0.385,0.073,1.823-0.072,2.287-0.226c0.248-0.842,0.599-5.004,0.599-7.244c0-2.228-1.264-7.716-1.578-8.254  c-0.292-0.343-1.843-1.425-2.46-1.425c-0.745,0-3.963,0.619-4.563,0.745l-0.137,0.03c-0.915,0.204-1.931,0.375-2.42-0.175  c-0.563-0.635,0.042-1.248,0.271-1.479c0.073-0.074,0.195-0.198,0.219-0.25c0.081-0.182,0.577-1.08,1.449-2.651  c0.913-1.646,2.163-3.9,2.333-4.289c0.298-0.684,1.739-5.547,1.78-6.616c0.016-0.429-0.273-0.588-0.972-0.801  c-0.171-0.052-0.333-0.102-0.469-0.17c-0.21-0.053-1.17,0.274-1.489,0.785c-0.175,0.281-0.603,1.07-1.098,1.984  c-0.703,1.296-1.576,2.909-2.106,3.757c-0.853,1.366-6.311,8.112-6.707,8.684c-0.2,0.289-0.815,1.566-1.089,1.536  c-0.448-0.049-0.615-1.291-0.615-1.291l-0.083-0.751c0.017-0.534-0.195-1.677-0.067-8.671c0.018-0.99,0.037-2.016,0.053-3.047  c0.079-4.997-0.335-7.129-0.495-7.587c-0.266-0.165-1.134-0.62-2.29-0.381c-0.592,0.325-1.177,3.491-1.718,9.402  c-0.061,0.662-0.11,1.203-0.152,1.553c-0.182,1.522-0.297,4.4-0.381,6.502c-0.031,0.767-0.058,1.444-0.083,1.94  c-0.104,2.038-0.436,3.648-1.424,3.8c-0.394,0.065-0.802-0.63-1.966-2.704c-0.508-0.904-1.195-2.229-1.599-3.24  c-0.753-1.883-1.659-8.065-1.903-10.104c-0.171-1.424-0.661-1.489-1.019-1.536c-0.125-0.017-0.254-0.034-0.381-0.097  c-0.003-0.002-0.476-0.199-1.016,0.376c-0.26,0.34-0.037,2.388,0.126,3.883c0.124,1.138,0.265,2.427,0.325,3.691  c0.097,2.028,0.619,5.126,1.08,7.86c0.341,2.026,0.664,3.94,0.778,5.199c0.213,2.343-0.676,7.092-1.154,9.643  c-0.12,0.638-0.222,1.187-0.235,1.329c-0.053,0.575,0.001,2.74,0.026,3.526l0.003,0.08L6.103,71.749z"/>
    <path d="M34.958,49.597c-0.03-0.073-0.289-0.727-0.262-1.295c0.024-0.494,0.839-1.295,0.86-1.4l0.419,0.086  c-0.053,0.261-0.195,1.016-0.212,1.365c-0.012,0.264,0.119,0.681,0.184,0.841L34.958,49.597z"/>
    <path d="M33.235,50.93c-0.647,0-0.643-0.078-0.92-0.3c-0.179-0.143-0.579-0.906-0.645-1.546l0.107-0.202  c0.441,0.387,0.944,0.818,1.134,0.97c0.236,0.023,0.892-0.001,1.422-0.044l0.084,1.065C33.898,50.914,33.517,50.93,33.235,50.93z"/>
    <path d="M34.705,63.894c-0.026-0.133-0.243-1.317,0.018-2.096c0.257-0.768,2.039-1.937,2.793-2.402l0.563,0.908  c-1.13,0.7-2.226,1.559-2.344,1.838c0,0-0.598,0.054-0.708,1.689L34.705,63.894z"/>
    <path d="M40.14,64.314c-0.604,0-1.419-0.252-2.262-0.633c-0.23-0.104-0.778-0.644-0.778-0.644l0.054-0.2  c0.018,0,0.747,0.184,0.884,0.205c2.372,0.376,2.973,0.138,3.1,0.056l0.081-0.042l0.864-0.367l0.417,0.982l-0.828,0.352  C41.341,64.218,40.838,64.314,40.14,64.314z"/>
    <path d="M36.043,59.983c-0.1,0-0.206-0.002-0.319-0.008c-1.167-0.062-3.337-0.771-4.014-1.077c-0.562,0.044-0.983-0.268-1.342-0.986  c-0.563-1.125-0.378-3.021,0.167-3.411c0.441-0.315,4.881-0.967,4.917-0.967c0.161,0,0.889-0.101,1.498-0.198l0.169,1.055  c-0.222,0.035-1.342,0.212-1.667,0.212c-0.34,0.018-3.494,0.563-4.245,0.77c-0.11,0.348-0.231,1.369,0.116,2.062  c0.175,0.352,0.286,0.409,0.287,0.41c0.124-0.022,0.323-0.049,0.519,0.076c0.33,0.158,2.572,0.932,3.652,0.988  c0.804,0.044,1.024-0.112,1.026-0.113c0,0-0.037,0.027-0.075,0.103l0.953,0.483C37.567,59.614,37.197,59.983,36.043,59.983z"/>
    <path d="M13.975,66.646c-1.034-0.162-4.465-0.732-5.215-1.305c-0.797-0.607-1.356-1.812-1.38-1.862l0.971-0.446  c0.13,0.28,0.572,1.09,1.057,1.459c0.366,0.279,2.741,0.788,4.732,1.099L13.975,66.646z"/>
    <path d="M22.858,70.805c-0.365,0-0.844-0.074-1.27-0.382c-0.641-0.464-1.884-2.217-2.127-2.563l0.875-0.612  c0.522,0.745,1.494,2.032,1.878,2.31c0.386,0.279,0.958,0.148,0.962,0.147l0.256,1.037C23.384,70.754,23.16,70.805,22.858,70.805z"/>
    <path d="M81.677,78.921c-0.151,0-0.282-0.009-0.388-0.027c-1.303-0.229-1.576-0.704-1.576-1.062l-0.057-2.479  c-0.357-0.064-0.831-0.17-1.117-0.313c-0.36-0.181-0.646-0.561-0.816-0.83c-0.427-0.04-1.24-0.164-2.214-0.554  c-1.114-0.445-2.091-0.845-2.385-0.966l-4.605-0.162c-0.334-0.119-0.715-0.227-0.857-0.242c-0.246,0.065-0.814,0.172-1.175,0.236  c-0.27,0.267-0.921,0.906-1.252,1.182c-0.464,0.388-1.359-0.228-1.41-0.211l0.099-0.238c0,0,0.316-0.111,0.628-0.371  c0.377-0.314,1.29-1.227,1.3-1.235l0.118-0.119l0.166-0.029c0.518-0.091,1.146-0.212,1.261-0.248  c0.118-0.039,0.361-0.121,1.401,0.242l4.554,0.134l0.09,0.037c0.001,0.001,1.134,0.467,2.465,1c1.211,0.484,2.131,0.495,2.141,0.495  l0.327,0.003l0.148,0.293c0.124,0.245,0.354,0.558,0.495,0.629c0.221,0.109,0.854,0.231,1.234,0.282l0.453,0.061l0.072,3.212  c0.095,0.049,0.298,0.132,0.698,0.202c0.952,0.161,5.798-0.949,7.984-1.838c1.232-0.501,2.545-1.601,3.9-3.269l0.096-0.117  c0.209-0.25,0.452-1.161,0.476-1.434c-0.069-0.334-0.607-2.122-1.128-3.853c-0.49-1.631-1.043-3.469-1.454-4.906  c-0.848-2.967-6.079-4.764-6.132-4.781c-0.918-0.278-22.837-6.944-24.293-7.414c-1.189-0.384-2.048,0.146-2.083,0.169l-0.089,0.056  l-0.106,0.021l-16.26,2.916l-0.188-1.052l16.167-2.898c0.341-0.187,1.454-0.691,2.887-0.228c1.448,0.467,24.063,7.344,24.292,7.414  c0.252,0.085,5.833,2.004,6.833,5.505c0.41,1.434,0.961,3.266,1.45,4.892C94.847,70.418,95,70.959,95,71.158  c0,0.367-0.289,1.621-0.725,2.145l-0.087,0.106c-1.47,1.809-2.926,3.015-4.328,3.584C87.977,77.759,83.422,78.921,81.677,78.921z"/>
    <path d="M65.634,77.25c-0.917,0-2.669-0.144-3.327-0.384c-0.821-0.299-2.355-2.312-2.807-2.921l-0.038-0.061  c-0.021-0.037-0.499-0.912-0.699-1.449c-0.34-0.906-0.178-1.926,0.402-2.535c0.434-0.456,6.288-7.553,6.329-7.599l-0.373,1.229  c-0.169,0.188-4.736,6.638-5.182,7.106c-0.301,0.314-0.373,0.9-0.177,1.425c0.139,0.37,0.479,1.02,0.619,1.278  c0.833,1.124,1.945,2.397,2.29,2.523c0.632,0.229,2.932,0.361,3.269,0.309c0.355-0.06,1.575-0.38,2.485-0.821  c0.547-0.266,0.495-0.93,0.354-1.911l-0.01-0.069c-0.075-0.531-0.749-0.963-0.979-1.071l0.458-0.965  c0.144,0.067,1.41,0.7,1.579,1.885l0.011,0.068c0.136,0.955,0.344,2.398-0.946,3.024c-1,0.485-2.302,0.835-2.776,0.914  C66.018,77.241,65.849,77.25,65.634,77.25z"/>
    <path d="M65.8,75.074l-0.187-0.023c0,0-0.049-0.711-0.075-1.145c-0.015-0.241-0.657-0.584-0.666-0.596l0.779-0.729  c0.047,0.047,0.455,0.488,0.324,1.269C65.889,74.374,65.8,75.074,65.8,75.074z"/>
    <path d="M59.252,73.493c-0.558,0-1.621-0.032-2.189-0.26c-0.315-0.126-2.568-1.247-2.731-2.199  c-0.101-0.582-0.144-2.031,0.003-2.763c0.137-0.685,4.405-6.082,6.312-8.611l-0.102,0.862c-2.354,3.126-4.993,7.489-5.171,7.988  c-0.108,0.55-0.072,1.859,0.011,2.343c0.125,0.261,1.354,1.1,2.075,1.388c0.41,0.165,1.507,0.199,2.106,0.18l0.031,1.068  C59.554,73.49,59.428,73.493,59.252,73.493z"/>
    <path d="M54.566,71.006c-0.425-0.178-2.576-1.093-3.113-1.629c-0.635-0.635-1.313-1.897-1.313-3.537c0-1.285,0.864-2.85,1.401-3.485  C51.928,61.896,56,57.675,57,56.054v0.519c-1,0.602-4.15,5.89-4.645,6.473c-0.42,0.496-1.089,1.832-1.089,2.795  c0,1.314,0.51,2.32,0.971,2.782c0.256,0.256,1.624,0.925,2.757,1.397L54.566,71.006z"/>
    <polygon points="41.749,59.462 41.695,58.395 55.454,57.662 54.49,58.812 "/>
    <path d="M51.544,72h-0.072c-0.028,0-2.829,0.264-3.504,0.275c-0.799,0.002-1.616-0.504-2.089-1.161  c-0.594-0.827-0.283-1.888-0.133-2.433c0.018-0.066,0.034-0.084,0.04-0.119c0.083-0.498,1.418-2.064,2.286-2.578  c0.895-0.528,2.435-0.844,2.5-0.858l0.218,1.051c-0.014,0.003-1.432,0.305-2.174,0.744c-0.677,0.398-1.644,1.605-1.785,1.9  c-0.012,0.054-0.031,0.128-0.056,0.215c-0.097,0.354-0.325,0.938-0.029,1.35C47.129,70.918,47.664,71,47.944,71  c0.002,0,0.004,0,0.006,0c0.634,0,2.999,0.25,3.456,0.254c0.601-0.162,2-0.424,2.304-0.525c0.364-0.121,0.91-0.323,0.915-0.327  l0.466,0.993c-0.024,0.011-0.614,0.311-1.043,0.454c-0.41,0.136-2.35,0.387-2.432,0.41L51.544,72z"/>
    <path d="M77.903,74.228l-0.129-1.061c0.941-0.115,1.944-0.425,2.104-0.65c0.33-0.462,0.771-1.574,0.912-1.964l0.245,0.089  c-0.057,0.158,0.186,1.833-0.288,2.496C80.209,73.894,78.435,74.162,77.903,74.228z"/>
    <path d="M80.16,75.604l-0.121-1.061c0.009-0.001,0.921-0.108,1.609-0.352c0.675-0.237,1.463-0.795,1.471-0.8l0.097,0.136  c-0.037,0.027-0.394,1.383-1.211,1.672C81.2,75.484,80.202,75.6,80.16,75.604z"/></svg>