<svg xmlns="http://www.w3.org/2000/svg" version="1.1" x="0px" y="0px" viewBox="0 0 157.838 151.26375" style="enable-background:new 0 0 157.838 121.011;" fill="white" xml:space="preserve"><g><path d="M113.668,65.274c-10.318,3.217-16.73,0.438-22.9-1.758l1.086,15.135c0.26,3.646-2.372,6.908-5.988,7.428   c-0.376,0.055-0.771,0.078-1.174,0.068c-3.24-0.08-5.98-2.35-6.666-5.521l-3.68-17.797c-1.133,0.422-2.313,0.947-3.562,1.615   c-1.457-0.428-2.973-0.963-4.515-1.613c2.521-1.688,5.494-3.299,8.963-4.635l0.759,3.514l3.992,18.494   c0.493,2.289,2.49,3.889,4.759,3.943c0.275,0.008,0.557-0.008,0.837-0.047c2.597-0.373,4.466-2.691,4.277-5.307l-1.275-17.777   l-1.33-18.549c-0.032-0.449-0.142-0.869-0.282-1.275c-3.504-3.037-7.531-7.537-11.198-14.076   C39.97,26.399,33.513,46.507,30.741,66.505c-5.943,4.576-14.666,8.844-26.336,8.394c-2.352-0.084-4.32,1.756-4.402,4.102   c-0.089,2.35,1.744,4.322,4.099,4.402c11.026,0.371,19.849-2.658,26.601-6.613c0.094,0.17,0.209,0.365,0.32,0.555   c1.155,3.111,3.255,6.418,6.632,10.029c0.495,0.523-4.479,31.191,3.473,33.014c7.95,1.818,13.188-39.299,13.28-45.559   c0.194-0.225,1.634-2.773,4.698-5.986c1.119,0.594,2.233,1.135,3.337,1.617c-0.082,0.176-0.172,0.385-0.26,0.586   c-1.836,2.764-3.275,6.408-4.213,11.262c-0.131,0.709-5.967,37.953,3.201,37.953c9.166,0,11.684-28.174,16.799-31.781   c0.723,0.064,21.068,14.311,32.682,12.52c2.456-0.381,5.696-1.787,8.562-3.371l9.231,20.44c0.828,1.834,2.64,2.943,4.559,2.943   c0.514,0,1.034-0.08,1.546-0.246c2.425-0.789,3.868-3.275,3.349-5.771l-7.025-33.842c-0.158-0.762-0.495-1.436-0.939-2.014   c0.013-0.074,0.027-0.154,0.04-0.227c-2.481-1.846-4.619-3.674-6.468-5.412C120.457,71.542,117.099,68.88,113.668,65.274z"/><path d="M144.571,49.261c-4.764-1.049-8.197-5.851-8.465-6.031c-0.219-0.148-3.67-4.525,1.115-9.898   c1.676-1.875-2.969-2.586-6.65-0.176c-4.381,2.869-4.715,6.342-3.857,10.443c-6.732,3.326-10.289,11.76-11.212,17.764   c7.938,8.785,15.408,11.906,19.169,12.994c2.187-3.146,6.228-8.213,8.217-8.824c4.328-1.338,11.088,0.305,13.303-3.107   c1.549-2.383,1.93-3.299,1.457-7.432C157.175,50.909,147.931,50.001,144.571,49.261z M137.489,56.02   c-1.775,0.248-3.42-0.988-3.668-2.768c-0.25-1.777,0.988-3.42,2.766-3.67c1.777-0.25,3.422,0.99,3.67,2.768   C140.507,54.13,139.269,55.772,137.489,56.02z"/><path d="M94.74,41.88c2.75-2.434,8.519-6.85,10.739-6.943c4.524-0.201,10.649,3.096,13.656,0.353c2.1-1.912,2.7-2.701,3.287-6.82   c0.573-4.07-8.139-7.287-11.202-8.85c-4.344-2.221-6.451-7.734-6.665-7.976c-0.174-0.199-2.407-5.307,3.581-9.295   c2.095-1.391-2.219-3.252-6.392-1.852c-4.961,1.668-6.164,4.945-6.371,9.131c-8.05,1.658-13.954,10.189-15.925,15.871   C85.01,35.245,91.266,39.89,94.74,41.88z M99.81,20.765c0.207-1.783,1.822-3.061,3.604-2.852c1.782,0.207,3.061,1.822,2.852,3.603   c-0.208,1.785-1.822,3.061-3.605,2.852C100.88,24.161,99.602,22.548,99.81,20.765z"/></g></svg>