<?xml version="1.0" encoding="UTF-8" standalone="no"?>
<svg width="43px" height="19px" viewBox="0 0 43 19" version="1.1" xmlns="http://www.w3.org/2000/svg">
    <!-- Generator: Sketch 40 (33762) - http://www.bohemiancoding.com/sketch -->
    <title>new-logo</title>
    <desc>Created with Sketch.</desc>
    <defs></defs>
    <g id="Page-1" stroke="none" stroke-width="1" fill="none" fill-rule="evenodd">
        <g id="goodgame-adaptive-landing-feed" transform="translate(-19.000000, -15.000000)" fill="#FFFFFF">
            <g id="top-bars">
                <g id="nav">
                    <g id="Group-4" transform="translate(19.000000, 15.000000)">
                        <path d="M33.3465828,0.0261828204 L33.7215575,12.7248507 L36.9480836,12.7248507 L37.3143379,0.0261828204 L33.3465828,0.0261828204 Z M35.3348205,19 C36.4280778,19 37.3143379,18.1130014 37.3143379,17.0188333 C37.3143379,15.9246651 36.4280778,15.0376665 35.3348205,15.0376665 C34.2415633,15.0376665 33.3553032,15.9246651 33.3553032,17.0188333 C33.3553032,18.1130014 34.2415633,19 35.3348205,19 Z M39.0409653,0.0261828204 L39.4072196,12.7248507 L42.6337457,12.7248507 L43,0.0261828204 L39.0409653,0.0261828204 Z M41.0204827,19 C42.1137399,19 43,18.1130014 43,17.0188333 C43,15.9246651 42.1137399,15.0376665 41.0204827,15.0376665 C39.9272254,15.0376665 39.0409653,15.9246651 39.0409653,17.0188333 C39.0409653,18.1130014 39.9272254,19 41.0204827,19 Z M28.4980734,9.1116215 L28.1579801,9.1116215 L22.9955384,9.1116215 L22.9955384,12.7423059 L27.4777936,12.7423059 C26.0738187,14.6972898 23.4228351,15.692237 20.6846481,14.5663757 C19.4638004,14.0601746 18.4784019,13.0914102 17.9639018,11.8695452 C16.2895964,7.84611851 19.1934699,3.98851631 22.9955384,3.98851631 C23.1699452,3.98851631 23.3443521,3.99724391 23.5187589,4.01469913 C23.5536402,4.01469913 23.5885216,4.02342673 23.623403,4.02342673 C23.6582843,4.02342673 23.6844453,4.03215434 23.7193267,4.03215434 C23.7542081,4.04088195 23.7890894,4.04088195 23.8239708,4.04960955 C23.8588522,4.05833716 23.8850132,4.05833716 23.9198945,4.06706477 C23.9547759,4.07579237 23.9896573,4.07579237 24.0245386,4.08451998 C24.05942,4.09324759 24.085581,4.09324759 24.111742,4.1019752 C24.1466234,4.1107028 24.1815048,4.11943041 24.2163861,4.11943041 C24.2425472,4.12815802 24.2774285,4.13688562 24.3035895,4.13688562 C24.3384709,4.14561323 24.3733523,4.15434084 24.3995133,4.16306844 C24.4256743,4.17179605 24.4605557,4.18052366 24.4867167,4.18925126 C24.5215981,4.19797887 24.5477591,4.20670648 24.5826404,4.21543408 C24.6088015,4.22416169 24.6436828,4.2328893 24.6698438,4.2416169 C24.7047252,4.25034451 24.7308862,4.25907212 24.7657676,4.27652733 C24.7919286,4.28525494 24.82681,4.29398254 24.852971,4.30271015 C24.8878524,4.31143776 24.9140134,4.32889297 24.9488947,4.33762058 C24.9750558,4.34634819 25.0099371,4.3638034 25.0360982,4.37253101 C25.0709795,4.38125861 25.0971405,4.39871383 25.1320219,4.40744143 C25.1581829,4.41616904 25.1930643,4.43362425 25.2192253,4.44235186 C25.2453863,4.45980707 25.2802677,4.46853468 25.3064287,4.48598989 C25.3325897,4.4947175 25.3587508,4.51217271 25.3936321,4.52090032 C25.4197931,4.53835554 25.4546745,4.54708314 25.4808355,4.56453836 C25.5069966,4.58199357 25.5331576,4.59072118 25.5593186,4.60817639 C25.5854796,4.6256316 25.620361,4.64308682 25.646522,4.65181442 C25.672683,4.66926964 25.698844,4.67799724 25.7250051,4.69545246 C25.7511661,4.71290767 25.7860475,4.73036288 25.8122085,4.7478181 C25.8383695,4.76527331 25.8645305,4.78272853 25.8906915,4.79145613 C26.1784628,4.96600827 26.440073,5.16674322 26.6929629,5.393661 L29.4921923,2.59209922 C29.1433786,2.26045016 28.768404,1.96371153 28.3759886,1.68442811 C28.358548,1.6669729 28.3323869,1.65824529 28.3062259,1.64079008 C28.2451835,1.59715204 28.1841411,1.55351401 28.1143784,1.51860358 C28.0794971,1.49242076 28.0446157,1.47496555 28.001014,1.44878273 C27.9399716,1.40514469 27.8702089,1.37023427 27.8091665,1.32659623 C27.7742851,1.30914102 27.7394038,1.2829582 27.6958021,1.26550299 C27.6260393,1.23059256 27.564997,1.18695452 27.4952342,1.1520441 C27.4603529,1.13458888 27.4254715,1.11713367 27.3905901,1.09967846 C27.3208274,1.06476803 27.2510647,1.02113 27.181302,0.986219568 C27.1464206,0.968764355 27.1202596,0.951309141 27.0853782,0.942581534 C27.0068952,0.907671107 26.9284121,0.87276068 26.8586494,0.837850253 C26.6580815,0.750574185 26.4749544,0.672025723 26.2918272,0.602204869 C26.2656662,0.593477262 26.2307848,0.576022049 26.2046238,0.567294442 C26.1435814,0.541111621 26.0738187,0.523656408 26.004056,0.497473588 C25.9517339,0.480018374 25.8994119,0.46256316 25.8470898,0.445107947 C25.7860475,0.427652733 25.7250051,0.41019752 25.6639627,0.392742306 C25.6029203,0.375287092 25.5505983,0.357831879 25.4895559,0.340376665 C25.4285135,0.322921452 25.3674711,0.305466238 25.3064287,0.296738631 C25.2453863,0.279283418 25.1843439,0.261828204 25.1233016,0.253100597 C25.0622592,0.235645384 25.0012168,0.226917777 24.9488947,0.21819017 C24.8878524,0.200734956 24.8180896,0.19200735 24.7570473,0.183279743 C24.6960049,0.174552136 24.6436828,0.165824529 24.5826404,0.148369316 C24.5128777,0.139641709 24.4518353,0.122186495 24.3820726,0.113458888 C24.3210302,0.104731282 24.2687082,0.0960036748 24.2076658,0.087276068 C24.1379031,0.0785484612 24.0681403,0.0698208544 24.007098,0.0610932476 C23.9460556,0.0523656408 23.8937335,0.0523656408 23.8326911,0.043638034 C23.7629284,0.0349104272 23.6931657,0.0349104272 23.623403,0.0261828204 C23.5885216,0.0261828204 23.5536402,0.0174552136 23.5187589,0.0174552136 C23.318191,0.0087276068 23.1525046,0 22.9868181,0 C16.6209694,0 11.7114176,6.28387689 14.1356723,13.0041341 C15.0513081,15.5525953 17.1005881,17.5337621 19.6556479,18.4152503 C25.1145812,20.2829582 30.2508619,17.3242995 31.9077266,12.7073955 C32.2565403,11.7386311 32.1867775,11.319706 32.2042182,10.2374828 L32.2042182,9.59163987 L32.2042182,9.11162123 L28.4980734,9.1116215 Z M12.1474346,9.84474047 L11.6503752,9.84474047 L10.9789089,9.84474047 L9.91502738,9.84474047 L9.41796796,9.84474047 L8.23200162,9.84474047 L6.81930643,9.84474047 L6.32224701,9.84474047 L6.32224701,10.3422141 L6.32224701,12.2273771 L6.32224701,12.7248507 L6.81930643,12.7248507 L8.23200162,12.7248507 L8.85986615,12.7248507 L9.40924762,12.7248507 C9.40924762,12.8121268 9.40052728,12.8906752 9.39180694,12.9779513 C9.3830866,13.0826826 9.36564591,13.1786863 9.34820523,13.2746899 C9.34820523,13.2921452 9.33948489,13.318328 9.33948489,13.3357832 C9.33948489,13.3445108 9.33076455,13.361966 9.33076455,13.3706936 C9.32204421,13.405604 9.31332387,13.4405145 9.30460353,13.4754249 C9.30460353,13.4928801 9.29588319,13.5103353 9.28716285,13.5190629 C9.27844251,13.5539734 9.26972217,13.5801562 9.26100183,13.6150666 C9.25228148,13.6325218 9.25228148,13.649977 9.24356114,13.6587046 C9.2348408,13.6848875 9.22612046,13.7197979 9.20867978,13.7459807 C9.19995944,13.7634359 9.19995944,13.7721635 9.1912391,13.7896187 C9.18251876,13.8158016 9.16507808,13.850712 9.15635774,13.8768948 C9.1476374,13.89435 9.1476374,13.9030776 9.13891706,13.9205328 C9.12147637,13.9554433 9.10403569,13.9903537 9.09531535,14.0165365 C9.08659501,14.0252641 9.08659501,14.0339917 9.08659501,14.0427193 C9.02555263,14.1736334 8.94706956,14.2958199 8.86858649,14.4180064 C8.86858649,14.4180064 8.86858649,14.4180064 8.86858649,14.426734 C8.84242547,14.4616445 8.81626445,14.5052825 8.79010343,14.5401929 L8.78138309,14.5489205 C8.75522206,14.583831 8.72906104,14.6187414 8.69417968,14.6536518 L8.68545934,14.6623794 C8.65929832,14.6972898 8.62441695,14.7322003 8.58953559,14.7671107 C8.02271345,15.3780432 7.21172176,15.7620579 6.32224701,15.7620579 C4.62178057,15.7620579 3.22652606,14.3656408 3.22652606,12.6637575 L3.22652606,8.82361047 C3.22652606,7.13045475 4.62178057,5.73403767 6.32224701,5.73403767 C6.46177246,5.73403767 6.61001825,5.74276527 6.7495437,5.76022049 C6.76698438,5.76022049 6.78442507,5.76894809 6.80186575,5.76894809 C6.83674711,5.7776757 6.86290813,5.7776757 6.8977895,5.78640331 C6.90650984,5.78640331 6.91523018,5.78640331 6.92395052,5.79513091 C7.46461164,5.8998622 7.95295072,6.15296279 8.36280673,6.50206706 C8.41512878,6.55443271 8.46745082,6.59807074 8.51977287,6.65043638 C8.53721355,6.66789159 8.55465423,6.68534681 8.57209491,6.70280202 C8.7203407,6.85989894 8.85986615,7.03445108 8.97323058,7.21773082 L9.37436625,6.81626091 L10.9527479,5.23656408 L11.2666802,4.92237023 C11.1794768,4.79145613 11.0748327,4.66926964 10.9701886,4.55581075 C10.9353072,4.52090032 10.9091462,4.48598989 10.8742649,4.45107947 C10.8568242,4.43362425 10.8393835,4.41616904 10.8219428,4.39871383 C10.7696208,4.34634819 10.7172987,4.29398254 10.6649767,4.2416169 C10.6388157,4.21543408 10.621375,4.19797887 10.595214,4.18052366 C10.5516122,4.14561323 10.5167309,4.1107028 10.4731292,4.06706477 C10.4382478,4.03215434 10.4033665,4.00597152 10.3684851,3.9797887 C10.3248834,3.94487827 10.2812817,3.90996785 10.2464003,3.87505742 C10.211519,3.8488746 10.1679173,3.81396417 10.1330359,3.78778135 C10.0894342,3.75287092 10.0458325,3.7179605 10.0022308,3.69177768 C9.96734942,3.66559486 9.92374772,3.63941203 9.88886636,3.61322921 L9.88014602,3.60450161 C9.81038329,3.55213597 9.74062056,3.50849793 9.6621375,3.4648599 L9.65341716,3.45613229 C9.60981545,3.42994947 9.55749341,3.39503904 9.51389171,3.36885622 C9.47029,3.3426734 9.4266883,3.32521819 9.3830866,3.29903537 C9.33948489,3.27285255 9.28716285,3.24666973 9.24356114,3.22048691 C9.19995944,3.19430409 9.15635774,3.17684887 9.11275603,3.15066605 C9.06043399,3.12448323 9.01683229,3.10702802 8.96451024,3.0808452 C8.92090854,3.06338999 8.87730683,3.03720717 8.83370513,3.01975195 C8.78138309,3.00229674 8.73778138,2.97611392 8.68545934,2.9586587 C8.64185764,2.94120349 8.59825593,2.92374828 8.54593389,2.90629306 C8.49361184,2.88883785 8.4412898,2.87138264 8.38896776,2.85392742 C8.34536605,2.83647221 8.29304401,2.819017 8.2494423,2.81028939 C8.19712026,2.79283418 8.14479822,2.77537896 8.08375583,2.75792375 C8.04015413,2.74046853 7.98783208,2.73174093 7.94423038,2.72301332 C7.89190834,2.70555811 7.83086595,2.6968305 7.77854391,2.67937529 C7.7349422,2.67064768 7.68262016,2.66192007 7.63901845,2.64446486 C7.57797607,2.63573725 7.51693368,2.61828204 7.46461164,2.60955443 C7.42100994,2.60082683 7.37740823,2.59209922 7.33380653,2.58337161 C7.27276415,2.57464401 7.21172176,2.5659164 7.14195903,2.55718879 C7.09835733,2.54846119 7.05475563,2.54846119 7.01115392,2.53973358 C6.9413912,2.53100597 6.87162847,2.53100597 6.79314541,2.52227836 C6.75826404,2.52227836 6.72338268,2.51355076 6.68850132,2.51355076 C6.54025553,2.51355076 6.43561144,2.50482315 6.32224701,2.50482315 C2.84283107,2.50482315 0,5.35875057 0,8.83233808 L0,12.6724851 C0,16.1548002 2.84283107,19 6.32224701,19 L6.81930643,19 C10.0283918,19 12.644494,16.3729904 12.644494,13.1699587 L12.644494,12.6724851 L12.644494,10.8833257 L12.644494,10.5167662 L12.644494,10.3422141 L12.644494,9.84474047 L12.1474346,9.84474047 Z" id="Combined-Shape"></path>
                    </g>
                </g>
            </g>
        </g>
    </g>
</svg>