<?xml version="1.0" encoding="UTF-8"?>
<svg width="130px" height="12px" viewBox="0 0 130 12" version="1.1" xmlns="http://www.w3.org/2000/svg" xmlns:xlink="http://www.w3.org/1999/xlink">
    <!-- Generator: Sketch 52.4 (67378) - http://www.bohemiancoding.com/sketch -->
    <title>Group 3</title>
    <desc>Created with Sketch.</desc>
    <defs>
        <polygon id="path-1" points="10.9664113 0.181191111 0.0649705741 0.181191111 0.0649705741 11.3242935 10.9664113 11.3242935"></polygon>
        <polygon id="path-3" points="10.9018107 0.181191111 0.00036999188 0.181191111 0.00036999188 11.3242935 10.9018107 11.3242935"></polygon>
        <linearGradient x1="0%" y1="50.0522466%" x2="100.140585%" y2="50.0522466%" id="linearGradient-5">
            <stop stop-color="#5BAAE3" offset="0%"></stop>
            <stop stop-color="#58A1DC" offset="33%"></stop>
            <stop stop-color="#4F89C8" offset="87%"></stop>
            <stop stop-color="#4C82C3" offset="100%"></stop>
        </linearGradient>
        <linearGradient x1="0%" y1="49.9090374%" x2="100.088002%" y2="49.9090374%" id="linearGradient-6">
            <stop stop-color="#363C61" offset="0%"></stop>
            <stop stop-color="#4D64A9" offset="100%"></stop>
        </linearGradient>
        <polygon id="path-7" points="9.39112487e-06 4.69622332e-06 30.3286847 4.69622332e-06 30.3286847 9.50543777 9.39112487e-06 9.50543777"></polygon>
    </defs>
    <g id="Demo-Pages-28.09.2017" stroke="none" stroke-width="1" fill="none" fill-rule="evenodd">
        <g id="4.1.-Pay_QIWI_Wallet-Copy-2" transform="translate(-158.000000, -70.000000)">
            <g id="Group-9" transform="translate(-287.000000, -512.000000)">
                <g id="Group-3" transform="translate(445.000000, 582.000000)">
                    <g id="иконки" transform="translate(35.533333, 0.000000)">
                        <g id="MC">
                            <g id="2-copy-4">
                                <g id="Page-1">
                                    <g id="Group">
                                        <g id="Group-3" transform="translate(6.659854, 0.573998)">
                                            <g id="Fill-1-Clipped">
                                                <g>
                                                    <mask id="mask-2" fill="white">
                                                        <use xlink:href="#path-1"></use>
                                                    </mask>
                                                    <g id="path-3"></g>
                                                    <path d="M10.9664113,5.75266679 C10.9664113,8.82989582 8.52594489,11.3242935 5.51569095,11.3242935 C2.50543702,11.3242935 0.0649705741,8.82989582 0.0649705741,5.75266679 C0.0649705741,2.67543775 2.50543702,0.181040119 5.51569095,0.181040119 C8.52594489,0.181040119 10.9664113,2.67543775 10.9664113,5.75266679 Z" id="Fill-1" fill="#FC9F3A" fill-rule="nonzero" mask="url(#mask-2)"></path>
                                                </g>
                                            </g>
                                        </g>
                                        <g id="Group-6" transform="translate(0.000000, 0.573998)">
                                            <g id="Fill-4-Clipped">
                                                <g>
                                                    <mask id="mask-4" fill="white">
                                                        <use xlink:href="#path-3"></use>
                                                    </mask>
                                                    <g id="path-5"></g>
                                                    <path d="M10.9018107,5.75266679 C10.9018107,8.82989582 8.46134431,11.3242935 5.45109037,11.3242935 C2.44083643,11.3242935 0.00036999188,8.82989582 0.00036999188,5.75266679 C0.00036999188,2.67543775 2.44083643,0.181040119 5.45109037,0.181040119 C8.46134431,0.181040119 10.9018107,2.67543775 10.9018107,5.75266679 Z" id="Fill-4" fill="#F14840" fill-rule="nonzero" mask="url(#mask-4)"></path>
                                                </g>
                                            </g>
                                        </g>
                                        <path d="M8.81313259,1.9405568 C7.5411005,2.96051176 6.72489841,4.54593399 6.72489841,6.32613665 C6.72489841,8.10709428 7.5411005,9.69327147 8.81313259,10.7132264 C10.0851647,9.69327147 10.9013668,8.10709428 10.9013668,6.32613665 C10.9013668,4.54593399 10.0851647,2.96051176 8.81313259,1.9405568" id="Fill-7" fill="#F46B3E" fill-rule="nonzero"></path>
                                    </g>
                                </g>
                            </g>
                        </g>
                    </g>
                    <g id="иконки" transform="translate(64.133333, 1.733333)" fill-rule="nonzero">
                        <g id="MIR_EN">
                            <g id="2-copy-9">
                                <g id="Page-1">
                                    <g id="Layer_2">
                                        <g id="Layer_2-2">
                                            <path d="M5.49781111,5.12363704 L5.30547845,5.12363704 L4.1805138,1.13817407 C3.98954436,0.463107729 3.38410239,-0.00117307032 2.69628624,-4.48663908e-15 L0,-2.21785202e-06 L0,8.67162595 L2.69991516,8.67162595 L2.69991516,3.54798889 L2.90313458,3.54798889 L4.44542483,8.67162595 L6.37600933,8.67162595 L7.91104174,3.54798889 L8.1033744,3.54798889 L8.1033744,8.67162595 L10.8032895,8.67162595 L10.8032895,-2.21785202e-06 L8.10700334,-4.66157129e-15 C7.41918717,-0.00117307032 6.8137452,0.463107729 6.62277576,1.13817407 L5.49781111,5.12363704 Z" id="Shape" fill="#3CA85B"></path>
                                            <path d="M21.4106175,0 L15.4337892,0 C15.8055457,2.05139759 17.554076,3.54183868 19.5961584,3.54798889 L24.2411738,3.54798889 C24.4113389,2.67944824 24.1926225,1.77866459 23.6448584,1.09206423 C23.0970943,0.405463873 22.2776198,0.00491673031 21.4106175,3.29283925e-16 Z" id="Shape" fill="url(#linearGradient-5)"></path>
                                            <polygon id="Rectangle-path" fill="#3CA85B" points="11.9609145 0 14.6608297 0 14.6608297 8.67162595 11.9609145 8.67162595"></polygon>
                                            <path d="M24.3137521,8.67533333 L22.3976833,5.73906667 C23.2139329,5.43807661 23.8555865,4.77982476 24.1468219,3.94468148 L15.8220835,3.94468148 L15.8220835,8.67162595 L18.507483,8.67162595 L18.507483,5.93185185 L19.7993778,5.93185185 L21.214656,8.6938704 L24.3137521,8.67533333 Z" id="Shape" fill="#3CA85B"></path>
                                        </g>
                                    </g>
                                </g>
                            </g>
                        </g>
                    </g>
                    <g id="иконки" transform="translate(0.000000, 1.733333)" fill="url(#linearGradient-6)" fill-rule="nonzero">
                        <g id="Visa">
                            <g id="2-copy-3">
                                <g id="Page-1">
                                    <g id="1">
                                        <path d="M9.54821307,0.674748148 L6.25775195,8.76431111 L4.1130764,8.76431111 L2.49722496,2.42464444 C2.47818196,2.10997292 2.29694036,1.82848089 2.0198143,1.68316296 C1.38771539,1.35150642 0.716403729,1.10234727 0.0220343379,0.941681481 L0.0661030136,0.645088889 L3.5108045,0.645088889 C3.98464761,0.671694506 4.37453329,1.03120627 4.44359147,1.50520741 L5.29558587,6.05048889 L7.40353752,0.645088889 L9.54821307,0.674748148 Z M17.9212615,6.10980741 C17.9212615,4.02624444 15.0641423,3.88536296 15.0861767,2.98075556 C15.0861767,2.69899259 15.3579335,2.39498519 15.9455158,2.32083704 C16.6310474,2.25549753 17.3213254,2.37847284 17.9432958,2.67674815 L18.2958452,1.001 C17.6897416,0.77202194 17.0480432,0.654008734 16.4008921,0.652503704 C14.4031122,0.652503704 12.9929146,1.72765185 12.978225,3.26251852 C12.978225,4.39698519 13.9844598,5.03465926 14.7483168,5.41281481 C15.5121739,5.79097037 15.7986202,6.05048889 15.7986202,6.39157037 C15.7986202,6.92543704 15.1669692,7.13305185 14.5867317,7.13305185 C13.8590311,7.16459463 13.1355602,7.00626276 12.4861248,6.67333333 L12.1188858,8.4084 C12.8374907,8.691163 13.6024792,8.83455106 14.3737331,8.83104444 C16.5037191,8.83104444 17.8918823,7.77072593 17.8992271,6.12463704 L17.9212615,6.10980741 Z M23.1874682,8.77914074 L25.0603869,8.77914074 L23.4445355,0.674748148 L21.7185124,0.674748148 C21.3265725,0.712099622 20.9915109,0.975188036 20.8591732,1.3494963 L17.8184346,8.76431111 L19.9410758,8.76431111 L20.367073,7.41481481 L22.9671248,7.41481481 L23.1874682,8.77914074 Z M20.9473105,5.73165185 L22.0123035,2.76572593 L22.629265,5.73165185 L20.9473105,5.73165185 Z M12.4273666,0.674748148 L10.7527569,8.76431111 L8.72559779,8.76431111 L10.4075522,0.674748148 L12.4273666,0.674748148 Z" id="Shape"></path>
                                    </g>
                                </g>
                            </g>
                        </g>
                    </g>
                    <g transform="translate(99.666667, 1.733333)">
                        <mask id="mask-8" fill="white">
                            <use xlink:href="#path-7"></use>
                        </mask>
                        <g id="Clip-2"></g>
                        <path d="M5.94332363,7.07467727 L5.00054861,5.94072719 C4.90161311,5.82167793 4.98641496,5.64148384 5.14094592,5.64148384 L7.11359866,5.64148384 C7.20755686,5.36172982 7.2604289,5.06300305 7.2604289,4.75258269 C7.2604289,3.33192818 6.20350475,2.10687136 4.75205944,2.10687136 C3.30075501,2.10687136 2.24317348,3.33192818 2.24317348,4.75258269 C2.24317348,6.17356594 3.30075501,7.38110585 4.75205944,7.38110585 C5.191658,7.38110585 5.59439639,7.269007 5.94332363,7.07467727 Z M10.2096178,8.99144082 C10.3122627,9.10480765 10.2280244,9.28744378 10.0738221,9.28744378 L7.9212354,9.28744378 C7.8331936,9.28744378 7.75045779,9.24869993 7.69439278,9.18107432 L7.32926584,8.74225921 C6.58633395,9.22442046 5.7017839,9.50544246 4.75205944,9.50544246 C2.13160691,9.50544246 9.39112487e-06,7.37340404 9.39112487e-06,4.75258269 C9.39112487e-06,2.13204312 2.13160691,4.69622332e-06 4.75205944,4.69622332e-06 C7.37232415,4.69622332e-06 9.5037808,2.13204312 9.5037808,4.75258269 C9.5037808,5.69746282 9.22566264,6.57795773 8.74864045,7.31850519 L10.2096178,8.99144082 Z M30.0948551,0.218801741 L28.3381982,0.218801741 C28.2088825,0.218801741 28.1045471,0.32310486 28.1045471,0.452344926 L28.1045471,9.0531492 C28.1045471,9.18210749 28.2088825,9.28673934 28.3381982,9.28673934 L30.0948551,9.28673934 C30.224077,9.28673934 30.3286941,9.18210749 30.3286941,9.0531492 L30.3286941,0.452344926 C30.3286941,0.32310486 30.224077,0.218801741 30.0948551,0.218801741 Z M27.1387638,0.218801741 L25.17353,0.218801741 C25.0703685,0.218801741 24.9796972,0.285394187 24.9495987,0.382746897 L23.3943814,5.46532851 L21.684915,0.377205353 C21.6529851,0.282623415 21.5638634,0.218801741 21.4631905,0.218801741 L20.0916167,0.218801741 C19.9910378,0.218801741 19.9017751,0.282623415 19.8697044,0.377205353 L18.1605197,5.46532851 L16.6052086,0.382746897 C16.57511,0.285394187 16.4844857,0.218801741 16.3816998,0.218801741 L14.4160434,0.218801741 C14.3408675,0.218801741 14.2705749,0.25454 14.2264836,0.314933432 C14.1825801,0.375561675 14.1707003,0.45304936 14.194272,0.523868407 L17.0813386,9.12913409 C17.1134093,9.22390388 17.2025311,9.28744378 17.3032978,9.28744378 L18.8631637,9.28744378 C18.9635078,9.28744378 19.0527235,9.22390388 19.0845594,9.12913409 L20.7776853,4.1017331 L22.47006,9.12913409 C22.5018489,9.22390388 22.5911116,9.28744378 22.6917375,9.28744378 L24.2519789,9.28744378 C24.3522762,9.28744378 24.4417266,9.22390388 24.4736095,9.12913409 L27.3606761,0.523868407 C27.3842478,0.45304936 27.3723211,0.375561675 27.3283706,0.314933432 C27.2843262,0.25454 27.2137519,0.218801741 27.1387638,0.218801741 Z M13.4505889,0.452344926 L13.4505889,9.0531492 C13.4505889,9.18210749 13.34569,9.28673934 13.2164212,9.28673934 L11.4599052,9.28673934 C11.3308241,9.28673934 11.226254,9.18210749 11.226254,9.0531492 L11.226254,0.452344926 C11.226254,0.32310486 11.3308241,0.218801741 11.4599052,0.218801741 L13.2164212,0.218801741 C13.34569,0.218801741 13.4505889,0.32310486 13.4505889,0.452344926 Z" id="Fill-1" fill="#FF8C00" mask="url(#mask-8)"></path>
                    </g>
                </g>
            </g>
        </g>
    </g>
</svg>